<svg width="227" height="30" viewBox="0 0 227 30" fill="none" xmlns="http://www.w3.org/2000/svg">
<path d="M9.29338 23C8.92138 23 8.61138 22.876 8.36338 22.628C8.11538 22.38 7.99138 22.0803 7.99138 21.729V2.571H10.6264V21.729C10.6264 22.0803 10.5024 22.38 10.2544 22.628C10.0064 22.876 9.68605 23 9.29338 23ZM2.10138 3.656C1.75005 3.656 1.45038 3.55267 1.20238 3.346C0.975046 3.11867 0.861379 2.82933 0.861379 2.478C0.861379 2.12667 0.975046 1.84767 1.20238 1.641C1.45038 1.41367 1.75005 1.3 2.10138 1.3H16.5164C16.8677 1.3 17.1674 1.41367 17.4154 1.641C17.6634 1.84767 17.7874 2.12667 17.7874 2.478C17.7874 2.85 17.6634 3.13933 17.4154 3.346C17.1674 3.55267 16.8677 3.656 16.5164 3.656H2.10138ZM28.8336 6.725C30.1976 6.725 31.2722 7.02467 32.0576 7.624C32.8636 8.20267 33.4319 8.988 33.7626 9.98C34.1139 10.9513 34.2896 12.0363 34.2896 13.235V21.729C34.2896 22.0803 34.1656 22.38 33.9176 22.628C33.6902 22.876 33.4009 23 33.0496 23C32.6982 23 32.3986 22.876 32.1506 22.628C31.9232 22.38 31.8096 22.0803 31.8096 21.729V13.235C31.8096 12.4497 31.6959 11.747 31.4686 11.127C31.2412 10.4863 30.8589 9.98 30.3216 9.608C29.8049 9.21533 29.0919 9.019 28.1826 9.019C27.3352 9.019 26.5602 9.21533 25.8576 9.608C25.1549 9.98 24.5969 10.4863 24.1836 11.127C23.7702 11.747 23.5636 12.4497 23.5636 13.235V21.729C23.5636 22.0803 23.4396 22.38 23.1916 22.628C22.9642 22.876 22.6749 23 22.3236 23C21.9722 23 21.6726 22.876 21.4246 22.628C21.1972 22.38 21.0836 22.0803 21.0836 21.729V1.3C21.0836 0.948666 21.1972 0.659333 21.4246 0.431999C21.6726 0.183999 21.9722 0.0599997 22.3236 0.0599997C22.6956 0.0599997 22.9952 0.183999 23.2226 0.431999C23.4499 0.659333 23.5636 0.948666 23.5636 1.3V10.569L22.9436 11.251C23.0469 10.7137 23.2742 10.1763 23.6256 9.639C23.9769 9.081 24.4212 8.585 24.9586 8.151C25.4959 7.717 26.0952 7.376 26.7566 7.128C27.4179 6.85933 28.1102 6.725 28.8336 6.725ZM46.2933 23.31C44.64 23.31 43.1933 22.9587 41.9533 22.256C40.7133 21.5533 39.742 20.5923 39.0393 19.373C38.3573 18.133 38.0163 16.707 38.0163 15.095C38.0163 13.297 38.3677 11.7677 39.0703 10.507C39.7937 9.22567 40.7237 8.25433 41.8603 7.593C43.0177 6.911 44.237 6.57 45.5183 6.57C46.469 6.57 47.3887 6.74567 48.2773 7.097C49.166 7.44833 49.9513 7.965 50.6333 8.647C51.3153 9.30833 51.863 10.1143 52.2763 11.065C52.6897 11.995 52.9067 13.0387 52.9273 14.196C52.9273 14.5267 52.8033 14.8057 52.5553 15.033C52.3073 15.2603 52.018 15.374 51.6873 15.374H39.4423L38.8843 13.235H50.8193L50.3233 13.669V12.987C50.2407 12.1397 49.9513 11.4163 49.4553 10.817C48.98 10.197 48.391 9.72167 47.6883 9.391C47.0063 9.06033 46.283 8.895 45.5183 8.895C44.8983 8.895 44.2783 9.00867 43.6583 9.236C43.059 9.44267 42.5113 9.794 42.0153 10.29C41.54 10.7653 41.1473 11.3853 40.8373 12.15C40.548 12.9147 40.4033 13.8343 40.4033 14.909C40.4033 16.1077 40.641 17.1617 41.1163 18.071C41.6123 18.9803 42.2943 19.7037 43.1623 20.241C44.0303 20.7577 45.043 21.016 46.2003 21.016C46.9237 21.016 47.554 20.923 48.0913 20.737C48.6287 20.551 49.0937 20.3237 49.4863 20.055C49.879 19.7657 50.2097 19.4763 50.4783 19.187C50.747 19.001 51.0053 18.908 51.2533 18.908C51.5633 18.908 51.8113 19.0113 51.9973 19.218C52.204 19.4247 52.3073 19.6727 52.3073 19.962C52.3073 20.3133 52.142 20.6233 51.8113 20.892C51.2327 21.5327 50.4473 22.101 49.4553 22.597C48.4633 23.0723 47.4093 23.31 46.2933 23.31ZM76.6498 12.15C76.6498 13.7413 76.3915 15.219 75.8748 16.583C75.3582 17.9263 74.6348 19.1043 73.7048 20.117C72.7748 21.1297 71.6692 21.915 70.3878 22.473C69.1065 23.031 67.7115 23.31 66.2028 23.31C64.6735 23.31 63.2682 23.031 61.9868 22.473C60.7262 21.915 59.6308 21.1297 58.7008 20.117C57.7708 19.1043 57.0475 17.9263 56.5308 16.583C56.0142 15.219 55.7558 13.7413 55.7558 12.15C55.7558 10.538 56.0142 9.06033 56.5308 7.717C57.0475 6.353 57.7708 5.175 58.7008 4.183C59.6308 3.17033 60.7262 2.385 61.9868 1.827C63.2682 1.269 64.6735 0.989999 66.2028 0.989999C67.7115 0.989999 69.1065 1.269 70.3878 1.827C71.6692 2.385 72.7748 3.17033 73.7048 4.183C74.6348 5.175 75.3582 6.353 75.8748 7.717C76.3915 9.06033 76.6498 10.538 76.6498 12.15ZM73.9838 12.15C73.9838 10.4553 73.6428 8.957 72.9608 7.655C72.2995 6.353 71.3902 5.33 70.2328 4.586C69.0755 3.842 67.7322 3.47 66.2028 3.47C64.6735 3.47 63.3198 3.842 62.1418 4.586C60.9845 5.33 60.0752 6.353 59.4138 7.655C58.7525 8.957 58.4218 10.4553 58.4218 12.15C58.4218 13.824 58.7525 15.3223 59.4138 16.645C60.0752 17.947 60.9845 18.97 62.1418 19.714C63.3198 20.458 64.6735 20.83 66.2028 20.83C67.7322 20.83 69.0755 20.458 70.2328 19.714C71.3902 18.97 72.2995 17.947 72.9608 16.645C73.6428 15.3223 73.9838 13.824 73.9838 12.15ZM88.2957 6.57C89.701 6.57 90.8067 6.85933 91.6127 7.438C92.4187 8.01667 92.987 8.79167 93.3177 9.763C93.669 10.7343 93.8447 11.8193 93.8447 13.018V21.729C93.8447 22.0803 93.7207 22.38 93.4727 22.628C93.2453 22.876 92.956 23 92.6047 23C92.2533 23 91.9537 22.876 91.7057 22.628C91.4783 22.38 91.3647 22.0803 91.3647 21.729V13.08C91.3647 12.2947 91.2407 11.592 90.9927 10.972C90.7653 10.3313 90.3727 9.825 89.8147 9.453C89.2773 9.06033 88.5333 8.864 87.5827 8.864C86.7147 8.864 85.919 9.06033 85.1957 9.453C84.4723 9.825 83.8937 10.3313 83.4597 10.972C83.0257 11.592 82.8087 12.2947 82.8087 13.08V21.729C82.8087 22.0803 82.6847 22.38 82.4367 22.628C82.2093 22.876 81.92 23 81.5687 23C81.2173 23 80.9177 22.876 80.6697 22.628C80.4423 22.38 80.3287 22.0803 80.3287 21.729V8.213C80.3287 7.86167 80.4423 7.57233 80.6697 7.345C80.9177 7.097 81.2173 6.973 81.5687 6.973C81.9407 6.973 82.2403 7.097 82.4677 7.345C82.695 7.57233 82.8087 7.86167 82.8087 8.213V10.414L82.1887 11.096C82.292 10.5587 82.5297 10.0213 82.9017 9.484C83.2737 8.926 83.7387 8.43 84.2967 7.996C84.8547 7.562 85.4747 7.221 86.1567 6.973C86.8387 6.70433 87.5517 6.57 88.2957 6.57ZM105.841 23.31C104.188 23.31 102.741 22.9587 101.501 22.256C100.261 21.5533 99.2899 20.5923 98.5872 19.373C97.9052 18.133 97.5642 16.707 97.5642 15.095C97.5642 13.297 97.9155 11.7677 98.6182 10.507C99.3415 9.22567 100.272 8.25433 101.408 7.593C102.566 6.911 103.785 6.57 105.066 6.57C106.017 6.57 106.937 6.74567 107.825 7.097C108.714 7.44833 109.499 7.965 110.181 8.647C110.863 9.30833 111.411 10.1143 111.824 11.065C112.238 11.995 112.455 13.0387 112.475 14.196C112.475 14.5267 112.351 14.8057 112.103 15.033C111.855 15.2603 111.566 15.374 111.235 15.374H98.9902L98.4322 13.235H110.367L109.871 13.669V12.987C109.789 12.1397 109.499 11.4163 109.003 10.817C108.528 10.197 107.939 9.72167 107.236 9.391C106.554 9.06033 105.831 8.895 105.066 8.895C104.446 8.895 103.826 9.00867 103.206 9.236C102.607 9.44267 102.059 9.794 101.563 10.29C101.088 10.7653 100.695 11.3853 100.385 12.15C100.096 12.9147 99.9512 13.8343 99.9512 14.909C99.9512 16.1077 100.189 17.1617 100.664 18.071C101.16 18.9803 101.842 19.7037 102.71 20.241C103.578 20.7577 104.591 21.016 105.748 21.016C106.472 21.016 107.102 20.923 107.639 20.737C108.177 20.551 108.642 20.3237 109.034 20.055C109.427 19.7657 109.758 19.4763 110.026 19.187C110.295 19.001 110.553 18.908 110.801 18.908C111.111 18.908 111.359 19.0113 111.545 19.218C111.752 19.4247 111.855 19.6727 111.855 19.962C111.855 20.3133 111.69 20.6233 111.359 20.892C110.781 21.5327 109.995 22.101 109.003 22.597C108.011 23.0723 106.957 23.31 105.841 23.31Z" fill="white"/>
<path d="M118.125 1.3H128.51C129.047 1.3 129.491 1.47567 129.843 1.827C130.215 2.15767 130.401 2.59167 130.401 3.129C130.401 3.64567 130.215 4.06933 129.843 4.4C129.491 4.71 129.047 4.865 128.51 4.865H119.83L120.109 4.338V10.383L119.861 10.135H127.115C127.652 10.135 128.096 10.3107 128.448 10.662C128.82 10.9927 129.006 11.4267 129.006 11.964C129.006 12.4807 128.82 12.9043 128.448 13.235C128.096 13.545 127.652 13.7 127.115 13.7H119.954L120.109 13.452V19.714L119.861 19.435H128.51C129.047 19.435 129.491 19.621 129.843 19.993C130.215 20.3443 130.401 20.7577 130.401 21.233C130.401 21.7497 130.215 22.1733 129.843 22.504C129.491 22.8347 129.047 23 128.51 23H118.125C117.587 23 117.133 22.8243 116.761 22.473C116.409 22.101 116.234 21.6463 116.234 21.109V3.191C116.234 2.65367 116.409 2.20933 116.761 1.858C117.133 1.486 117.587 1.3 118.125 1.3ZM134.005 6.415C134.604 6.415 135.111 6.67333 135.524 7.19L145.878 20.055C146.147 20.3857 146.281 20.7577 146.281 21.171C146.281 21.6877 146.085 22.132 145.692 22.504C145.299 22.876 144.865 23.062 144.39 23.062C143.791 23.062 143.284 22.7933 142.871 22.256L132.517 9.391C132.248 9.06033 132.114 8.68833 132.114 8.275C132.114 7.73767 132.3 7.29333 132.672 6.942C133.065 6.59067 133.509 6.415 134.005 6.415ZM134.036 23.031C133.623 23.031 133.209 22.876 132.796 22.566C132.403 22.2353 132.207 21.8427 132.207 21.388C132.207 20.9747 132.362 20.582 132.672 20.21L137.415 14.413L139.275 17.513L135.524 22.256C135.131 22.7727 134.635 23.031 134.036 23.031ZM144.359 6.415C144.855 6.415 145.268 6.59067 145.599 6.942C145.95 7.27267 146.126 7.655 146.126 8.089C146.126 8.29567 146.095 8.50233 146.033 8.709C145.971 8.91567 145.857 9.112 145.692 9.298L141.011 15.002L139.058 12.305L142.871 7.252C143.284 6.694 143.78 6.415 144.359 6.415ZM157.357 6.105C158.804 6.105 160.096 6.477 161.232 7.221C162.39 7.94433 163.299 8.94667 163.96 10.228C164.642 11.5093 164.983 12.9973 164.983 14.692C164.983 16.3867 164.642 17.885 163.96 19.187C163.299 20.4683 162.4 21.481 161.263 22.225C160.147 22.9483 158.887 23.31 157.481 23.31C156.655 23.31 155.88 23.1757 155.156 22.907C154.433 22.6383 153.792 22.2973 153.234 21.884C152.697 21.4707 152.273 21.0573 151.963 20.644C151.674 20.21 151.529 19.8483 151.529 19.559L152.49 19.156V27.309C152.49 27.8463 152.315 28.2907 151.963 28.642C151.612 29.014 151.168 29.2 150.63 29.2C150.093 29.2 149.649 29.0243 149.297 28.673C148.946 28.3217 148.77 27.867 148.77 27.309V8.306C148.77 7.76867 148.946 7.32433 149.297 6.973C149.649 6.601 150.093 6.415 150.63 6.415C151.168 6.415 151.612 6.601 151.963 6.973C152.315 7.32433 152.49 7.76867 152.49 8.306V9.825L151.963 9.546C151.963 9.27733 152.108 8.957 152.397 8.585C152.687 8.19233 153.079 7.81 153.575 7.438C154.071 7.04533 154.64 6.725 155.28 6.477C155.942 6.229 156.634 6.105 157.357 6.105ZM156.892 9.515C155.983 9.515 155.187 9.74233 154.505 10.197C153.823 10.6517 153.286 11.2717 152.893 12.057C152.521 12.8217 152.335 13.7 152.335 14.692C152.335 15.6633 152.521 16.552 152.893 17.358C153.286 18.1433 153.823 18.7633 154.505 19.218C155.187 19.6727 155.983 19.9 156.892 19.9C157.802 19.9 158.587 19.6727 159.248 19.218C159.93 18.7633 160.457 18.1433 160.829 17.358C161.222 16.552 161.418 15.6633 161.418 14.692C161.418 13.7 161.222 12.8217 160.829 12.057C160.457 11.2717 159.93 10.6517 159.248 10.197C158.587 9.74233 157.802 9.515 156.892 9.515ZM170.096 23C169.559 23 169.115 22.8243 168.763 22.473C168.412 22.101 168.236 21.6463 168.236 21.109V8.306C168.236 7.76867 168.412 7.32433 168.763 6.973C169.115 6.601 169.559 6.415 170.096 6.415C170.634 6.415 171.078 6.601 171.429 6.973C171.781 7.32433 171.956 7.76867 171.956 8.306V11.22L171.739 9.143C171.967 8.647 172.256 8.213 172.607 7.841C172.979 7.44833 173.393 7.128 173.847 6.88C174.302 6.61133 174.788 6.415 175.304 6.291C175.821 6.167 176.338 6.105 176.854 6.105C177.474 6.105 177.991 6.28067 178.404 6.632C178.838 6.98333 179.055 7.39667 179.055 7.872C179.055 8.554 178.88 9.05 178.528 9.36C178.177 9.64933 177.795 9.794 177.381 9.794C176.989 9.794 176.627 9.72167 176.296 9.577C175.986 9.43233 175.625 9.36 175.211 9.36C174.839 9.36 174.457 9.453 174.064 9.639C173.692 9.80433 173.341 10.073 173.01 10.445C172.7 10.817 172.442 11.282 172.235 11.84C172.049 12.3773 171.956 13.018 171.956 13.762V21.109C171.956 21.6463 171.781 22.101 171.429 22.473C171.078 22.8243 170.634 23 170.096 23ZM188.793 23.31C187.037 23.31 185.507 22.9483 184.205 22.225C182.924 21.481 181.932 20.4787 181.229 19.218C180.547 17.9573 180.206 16.5313 180.206 14.94C180.206 13.08 180.578 11.499 181.322 10.197C182.087 8.87433 183.079 7.86167 184.298 7.159C185.518 6.45633 186.809 6.105 188.173 6.105C189.227 6.105 190.219 6.322 191.149 6.756C192.1 7.19 192.937 7.78933 193.66 8.554C194.384 9.298 194.952 10.166 195.365 11.158C195.799 12.15 196.016 13.204 196.016 14.32C195.996 14.816 195.799 15.219 195.427 15.529C195.055 15.839 194.621 15.994 194.125 15.994H182.283L181.353 12.894H192.73L192.048 13.514V12.677C192.007 12.0777 191.79 11.5403 191.397 11.065C191.025 10.5897 190.55 10.2177 189.971 9.949C189.413 9.65967 188.814 9.515 188.173 9.515C187.553 9.515 186.975 9.59767 186.437 9.763C185.9 9.92833 185.435 10.2073 185.042 10.6C184.65 10.9927 184.34 11.5197 184.112 12.181C183.885 12.8423 183.771 13.6793 183.771 14.692C183.771 15.808 183.999 16.7587 184.453 17.544C184.929 18.3087 185.528 18.8977 186.251 19.311C186.995 19.7037 187.781 19.9 188.607 19.9C189.372 19.9 189.982 19.838 190.436 19.714C190.891 19.59 191.253 19.4453 191.521 19.28C191.811 19.094 192.069 18.939 192.296 18.815C192.668 18.629 193.02 18.536 193.35 18.536C193.805 18.536 194.177 18.691 194.466 19.001C194.776 19.311 194.931 19.6727 194.931 20.086C194.931 20.644 194.642 21.1503 194.063 21.605C193.526 22.0597 192.772 22.4627 191.8 22.814C190.829 23.1447 189.827 23.31 188.793 23.31ZM198.305 20.427C198.099 20.1377 198.006 19.7657 198.026 19.311C198.047 18.8563 198.316 18.4637 198.832 18.133C199.163 17.9263 199.514 17.8437 199.886 17.885C200.258 17.9057 200.62 18.0917 200.971 18.443C201.571 19.0423 202.201 19.5073 202.862 19.838C203.524 20.1687 204.35 20.334 205.342 20.334C205.652 20.3133 205.993 20.272 206.365 20.21C206.737 20.1273 207.058 19.962 207.326 19.714C207.616 19.4453 207.76 19.0423 207.76 18.505C207.76 18.0503 207.605 17.6887 207.295 17.42C206.985 17.1513 206.572 16.924 206.055 16.738C205.559 16.552 205.001 16.3763 204.381 16.211C203.741 16.025 203.079 15.8183 202.397 15.591C201.736 15.3637 201.126 15.0743 200.568 14.723C200.01 14.351 199.556 13.8653 199.204 13.266C198.853 12.6667 198.677 11.9123 198.677 11.003C198.677 9.96967 198.967 9.09133 199.545 8.368C200.124 7.64467 200.868 7.08667 201.777 6.694C202.707 6.30133 203.679 6.105 204.691 6.105C205.332 6.105 206.004 6.18767 206.706 6.353C207.409 6.49767 208.081 6.74567 208.721 7.097C209.362 7.42767 209.899 7.872 210.333 8.43C210.561 8.74 210.695 9.112 210.736 9.546C210.778 9.98 210.581 10.3727 210.147 10.724C209.837 10.972 209.476 11.0857 209.062 11.065C208.649 11.0237 208.308 10.879 208.039 10.631C207.688 10.1763 207.213 9.81467 206.613 9.546C206.035 9.27733 205.363 9.143 204.598 9.143C204.288 9.143 203.947 9.18433 203.575 9.267C203.224 9.329 202.914 9.484 202.645 9.732C202.377 9.95933 202.242 10.3313 202.242 10.848C202.242 11.3233 202.397 11.7057 202.707 11.995C203.017 12.2637 203.431 12.491 203.947 12.677C204.485 12.8423 205.053 13.0077 205.652 13.173C206.272 13.3383 206.903 13.5347 207.543 13.762C208.184 13.9893 208.773 14.289 209.31 14.661C209.848 15.033 210.282 15.5187 210.612 16.118C210.943 16.6967 211.108 17.4407 211.108 18.35C211.108 19.404 210.798 20.303 210.178 21.047C209.558 21.791 208.783 22.3593 207.853 22.752C206.923 23.124 205.973 23.31 205.001 23.31C203.782 23.31 202.563 23.1033 201.343 22.69C200.124 22.256 199.111 21.5017 198.305 20.427ZM213.261 20.427C213.054 20.1377 212.961 19.7657 212.982 19.311C213.002 18.8563 213.271 18.4637 213.788 18.133C214.118 17.9263 214.47 17.8437 214.842 17.885C215.214 17.9057 215.575 18.0917 215.927 18.443C216.526 19.0423 217.156 19.5073 217.818 19.838C218.479 20.1687 219.306 20.334 220.298 20.334C220.608 20.3133 220.949 20.272 221.321 20.21C221.693 20.1273 222.013 19.962 222.282 19.714C222.571 19.4453 222.716 19.0423 222.716 18.505C222.716 18.0503 222.561 17.6887 222.251 17.42C221.941 17.1513 221.527 16.924 221.011 16.738C220.515 16.552 219.957 16.3763 219.337 16.211C218.696 16.025 218.035 15.8183 217.353 15.591C216.691 15.3637 216.082 15.0743 215.524 14.723C214.966 14.351 214.511 13.8653 214.16 13.266C213.808 12.6667 213.633 11.9123 213.633 11.003C213.633 9.96967 213.922 9.09133 214.501 8.368C215.079 7.64467 215.823 7.08667 216.733 6.694C217.663 6.30133 218.634 6.105 219.647 6.105C220.287 6.105 220.959 6.18767 221.662 6.353C222.364 6.49767 223.036 6.74567 223.677 7.097C224.317 7.42767 224.855 7.872 225.289 8.43C225.516 8.74 225.65 9.112 225.692 9.546C225.733 9.98 225.537 10.3727 225.103 10.724C224.793 10.972 224.431 11.0857 224.018 11.065C223.604 11.0237 223.263 10.879 222.995 10.631C222.643 10.1763 222.168 9.81467 221.569 9.546C220.99 9.27733 220.318 9.143 219.554 9.143C219.244 9.143 218.903 9.18433 218.531 9.267C218.179 9.329 217.869 9.484 217.601 9.732C217.332 9.95933 217.198 10.3313 217.198 10.848C217.198 11.3233 217.353 11.7057 217.663 11.995C217.973 12.2637 218.386 12.491 218.903 12.677C219.44 12.8423 220.008 13.0077 220.608 13.173C221.228 13.3383 221.858 13.5347 222.499 13.762C223.139 13.9893 223.728 14.289 224.266 14.661C224.803 15.033 225.237 15.5187 225.568 16.118C225.898 16.6967 226.064 17.4407 226.064 18.35C226.064 19.404 225.754 20.303 225.134 21.047C224.514 21.791 223.739 22.3593 222.809 22.752C221.879 23.124 220.928 23.31 219.957 23.31C218.737 23.31 217.518 23.1033 216.299 22.69C215.079 22.256 214.067 21.5017 213.261 20.427Z" fill="#1877F2"/>
</svg>
